<?xml version="1.0" standalone="no"?>
<svg version="1.0"
    xmlns="http://www.w3.org/2000/svg" height="30px" weight="20px"  viewBox="0 0 512.000000 512.000000">

    <g transform="translate(0.000000,512.000000) scale(0.100000,-0.100000)" fill="#000000" stroke="none">
        <path d="M190 4341 c-69 -21 -130 -73 -166 -141 -18 -34 -19 -96 -22 -1625 -3
-1746 -6 -1634 58 -1715 17 -21 54 -50 82 -64 l52 -26 2366 0 2366 0 52 26
c28 14 65 43 82 64 64 81 61 -31 58 1715 -3 1529 -4 1591 -22 1625 -26 49 -74
98 -121 123 l-40 22 -2360 2 c-1298 1 -2371 -2 -2385 -6z m4732 -189 l23 -23
3 -1542 c1 -848 0 -1557 -3 -1575 -3 -17 -16 -41 -27 -52 -22 -20 -37 -20
-2357 -20 -1821 1 -2340 3 -2352 13 -9 7 -21 22 -27 34 -18 33 -17 3108 1
3143 7 13 24 30 37 37 20 10 498 12 2352 10 l2327 -2 23 -23z"/>
        <path d="M2358 3560 c-388 -82 -683 -360 -790 -747 -19 -67 -22 -104 -22 -258
0 -167 2 -187 28 -270 56 -188 144 -333 279 -462 95 -91 166 -140 280 -193
160 -75 339 -105 525 -88 234 21 433 113 609 281 136 130 224 277 279 462 35
122 44 328 20 460 -78 416 -404 739 -825 819 -110 21 -273 19 -383 -4z"/>
    </g>
</svg>
